<svg id="svg" xmlns="http://www.w3.org/2000/svg" viewBox="0 0 4 2.8">
<path fill='hsla(255, 255%,255%, 1)' d="M 1 0 A 1 1 0 1 1-1 0 A 1 1 0 1 1 1 0 z M 3 0 A 1 1 0 1 1 1 0 A 1 1 0 1 1 3 0 z M 5 0 A 1 1 0 1 1 3 0 A 1 1 0 1 1 5 0 z M 7 0 A 1 1 0 1 1 5 0 A 1 1 0 1 1 7 0 z M 1 4 A 1 1 0 1 1-1 4 A 1 1 0 1 1 1 4 z M 3 4 A 1 1 0 1 1 1 4 A 1 1 0 1 1 3 4 z M 5 4 A 1 1 0 1 1 3 4 A 1 1 0 1 1 5 4 z M 7 4 A 1 1 0 1 1 5 4 A 1 1 0 1 1 7 4 z M 1 3 A 1 1 0 1 1-1 3 A 1 1 0 1 1 1 3 z M 2 3 A 1 1 0 1 1 0 3 A 1 1 0 1 1 2 3 z M 3 3 A 1 1 0 1 1 1 3 A 1 1 0 1 1 3 3 z M 4 3 A 1 1 0 1 1 2 3 A 1 1 0 1 1 4 3 z M 5 3 A 1 1 0 1 1 3 3 A 1 1 0 1 1 5 3 z M 6 3 A 1 1 0 1 1 4 3 A 1 1 0 1 1 6 3 z M 7 3 A 1 1 0 1 1 5 3 A 1 1 0 1 1 7 3 z M 1 0 A 1 1 0 1 1-1 0 A 1 1 0 1 1 1 0 z M 1 2 A 1 1 0 1 1-1 2 A 1 1 0 1 1 1 2 z M 1 4 A 1 1 0 1 1-1 4 A 1 1 0 1 1 1 4 z M 1 6 A 1 1 0 1 1-1 6 A 1 1 0 1 1 1 6 z M 5 0 A 1 1 0 1 1 3 0 A 1 1 0 1 1 5 0 z M 5 2 A 1 1 0 1 1 3 2 A 1 1 0 1 1 5 2 z M 5 4 A 1 1 0 1 1 3 4 A 1 1 0 1 1 5 4 z M 5 6 A 1 1 0 1 1 3 6 A 1 1 0 1 1 5 6 z M 2 0 A 1 1 0 1 1 0 0 A 1 1 0 1 1 2 0 z M 2 1 A 1 1 0 1 1 0 1 A 1 1 0 1 1 2 1 z M 2 2 A 1 1 0 1 1 0 2 A 1 1 0 1 1 2 2 z M 2 3 A 1 1 0 1 1 0 3 A 1 1 0 1 1 2 3 z M 2 4 A 1 1 0 1 1 0 4 A 1 1 0 1 1 2 4 z M 2 5 A 1 1 0 1 1 0 5 A 1 1 0 1 1 2 5 z M 2 6 A 1 1 0 1 1 0 6 A 1 1 0 1 1 2 6 z M-1 1 A 1 1 0 1 1-3 1 A 1 1 0 1 1-1 1 z M 0 1 A 1 1 0 1 1-2 1 A 1 1 0 1 1 0 1 z M 1 1 A 1 1 0 1 1-1 1 A 1 1 0 1 1 1 1 z M 2 1 A 1 1 0 1 1 0 1 A 1 1 0 1 1 2 1 z M 3 1 A 1 1 0 1 1 1 1 A 1 1 0 1 1 3 1 z M 4 1 A 1 1 0 1 1 2 1 A 1 1 0 1 1 4 1 z M 5 1 A 1 1 0 1 1 3 1 A 1 1 0 1 1 5 1 z M 6 1 A 1 1 0 1 1 4 1 A 1 1 0 1 1 6 1 z M 4-2 A 1 1 0 1 1 2-2 A 1 1 0 1 1 4-2 z M 4-1 A 1 1 0 1 1 2-1 A 1 1 0 1 1 4-1 z M 4 0 A 1 1 0 1 1 2 0 A 1 1 0 1 1 4 0 z M 4 1 A 1 1 0 1 1 2 1 A 1 1 0 1 1 4 1 z M 4 2 A 1 1 0 1 1 2 2 A 1 1 0 1 1 4 2 z M 4 3 A 1 1 0 1 1 2 3 A 1 1 0 1 1 4 3 z M 4 4 A 1 1 0 1 1 2 4 A 1 1 0 1 1 4 4 z M 4 5 A 1 1 0 1 1 2 5 A 1 1 0 1 1 4 5 z M 3 2 A 1 1 0 1 1 1 2 A 1 1 0 1 1 3 2 z" fill-rule="evenodd">
<animate attributeName="d" to="M-1 0 A 1 1 0 1 1-3 0 A 1 1 0 1 1-1 0 z M 1 0 A 1 1 0 1 1-1 0 A 1 1 0 1 1 1 0 z M 3 0 A 1 1 0 1 1 1 0 A 1 1 0 1 1 3 0 z M 5 0 A 1 1 0 1 1 3 0 A 1 1 0 1 1 5 0 z M-1 4 A 1 1 0 1 1-3 4 A 1 1 0 1 1-1 4 z M 1 4 A 1 1 0 1 1-1 4 A 1 1 0 1 1 1 4 z M 3 4 A 1 1 0 1 1 1 4 A 1 1 0 1 1 3 4 z M 5 4 A 1 1 0 1 1 3 4 A 1 1 0 1 1 5 4 z M-1 3 A 1 1 0 1 1-3 3 A 1 1 0 1 1-1 3 z M 0 3 A 1 1 0 1 1-2 3 A 1 1 0 1 1 0 3 z M 1 3 A 1 1 0 1 1-1 3 A 1 1 0 1 1 1 3 z M 2 3 A 1 1 0 1 1 0 3 A 1 1 0 1 1 2 3 z M 3 3 A 1 1 0 1 1 1 3 A 1 1 0 1 1 3 3 z M 4 3 A 1 1 0 1 1 2 3 A 1 1 0 1 1 4 3 z M 5 3 A 1 1 0 1 1 3 3 A 1 1 0 1 1 5 3 z M 1-2 A 1 1 0 1 1-1-2 A 1 1 0 1 1 1-2 z M 1 0 A 1 1 0 1 1-1 0 A 1 1 0 1 1 1 0 z M 1 2 A 1 1 0 1 1-1 2 A 1 1 0 1 1 1 2 z M 1 4 A 1 1 0 1 1-1 4 A 1 1 0 1 1 1 4 z M 5-2 A 1 1 0 1 1 3-2 A 1 1 0 1 1 5-2 z M 5 0 A 1 1 0 1 1 3 0 A 1 1 0 1 1 5 0 z M 5 2 A 1 1 0 1 1 3 2 A 1 1 0 1 1 5 2 z M 5 4 A 1 1 0 1 1 3 4 A 1 1 0 1 1 5 4 z M 2-2 A 1 1 0 1 1 0-2 A 1 1 0 1 1 2-2 z M 2-1 A 1 1 0 1 1 0-1 A 1 1 0 1 1 2-1 z M 2 0 A 1 1 0 1 1 0 0 A 1 1 0 1 1 2 0 z M 2 1 A 1 1 0 1 1 0 1 A 1 1 0 1 1 2 1 z M 2 2 A 1 1 0 1 1 0 2 A 1 1 0 1 1 2 2 z M 2 3 A 1 1 0 1 1 0 3 A 1 1 0 1 1 2 3 z M 2 4 A 1 1 0 1 1 0 4 A 1 1 0 1 1 2 4 z M 1 1 A 1 1 0 1 1-1 1 A 1 1 0 1 1 1 1 z M 2 1 A 1 1 0 1 1 0 1 A 1 1 0 1 1 2 1 z M 3 1 A 1 1 0 1 1 1 1 A 1 1 0 1 1 3 1 z M 4 1 A 1 1 0 1 1 2 1 A 1 1 0 1 1 4 1 z M 5 1 A 1 1 0 1 1 3 1 A 1 1 0 1 1 5 1 z M 6 1 A 1 1 0 1 1 4 1 A 1 1 0 1 1 6 1 z M 7 1 A 1 1 0 1 1 5 1 A 1 1 0 1 1 7 1 z M 8 1 A 1 1 0 1 1 6 1 A 1 1 0 1 1 8 1 z M 4 0 A 1 1 0 1 1 2 0 A 1 1 0 1 1 4 0 z M 4 1 A 1 1 0 1 1 2 1 A 1 1 0 1 1 4 1 z M 4 2 A 1 1 0 1 1 2 2 A 1 1 0 1 1 4 2 z M 4 3 A 1 1 0 1 1 2 3 A 1 1 0 1 1 4 3 z M 4 4 A 1 1 0 1 1 2 4 A 1 1 0 1 1 4 4 z M 4 5 A 1 1 0 1 1 2 5 A 1 1 0 1 1 4 5 z M 4 6 A 1 1 0 1 1 2 6 A 1 1 0 1 1 4 6 z M 4 7 A 1 1 0 1 1 2 7 A 1 1 0 1 1 4 7 z M 3 2 A 1 1 0 1 1 1 2 A 1 1 0 1 1 3 2 z" dur="4s" repeatCount="indefinite"/>
</path>
</svg>
